<mxfile host="app.diagrams.net" modified="2024-05-25T11:46:53.272Z" agent="Mozilla/5.0 (Windows NT 10.0; Win64; x64) AppleWebKit/537.36 (KHTML, like Gecko) Chrome/125.0.0.0 Safari/537.36" etag="Nn4PlFlgu9eggjpk7Khe" version="24.4.8" type="device">
  <diagram name="PÃ¡gina-1" id="ukWUX-zo77iDo76YiBS3">
    <mxGraphModel dx="819" dy="422" grid="1" gridSize="10" guides="1" tooltips="1" connect="1" arrows="1" fold="1" page="1" pageScale="1" pageWidth="1169" pageHeight="827" math="0" shadow="0">
      <root>
        <mxCell id="0" />
        <mxCell id="1" parent="0" />
        <mxCell id="4EGNlfxAOWbaa50m1SkZ-10" value="1" style="text;html=1;align=center;verticalAlign=middle;resizable=0;points=[];autosize=1;strokeColor=none;fillColor=none;" vertex="1" parent="1">
          <mxGeometry x="255" y="355" width="30" height="30" as="geometry" />
        </mxCell>
        <mxCell id="4EGNlfxAOWbaa50m1SkZ-1" value="" style="endArrow=none;html=1;rounded=0;" edge="1" parent="1">
          <mxGeometry width="50" height="50" relative="1" as="geometry">
            <mxPoint x="260" y="400" as="sourcePoint" />
            <mxPoint x="360" y="400" as="targetPoint" />
          </mxGeometry>
        </mxCell>
        <mxCell id="4EGNlfxAOWbaa50m1SkZ-2" value="" style="endArrow=none;html=1;rounded=0;" edge="1" parent="1">
          <mxGeometry width="50" height="50" relative="1" as="geometry">
            <mxPoint x="280" y="420" as="sourcePoint" />
            <mxPoint x="280" y="320" as="targetPoint" />
          </mxGeometry>
        </mxCell>
        <mxCell id="4EGNlfxAOWbaa50m1SkZ-3" value="X1" style="text;html=1;align=center;verticalAlign=middle;resizable=0;points=[];autosize=1;strokeColor=none;fillColor=none;" vertex="1" parent="1">
          <mxGeometry x="250" y="310" width="40" height="30" as="geometry" />
        </mxCell>
        <mxCell id="4EGNlfxAOWbaa50m1SkZ-4" value="X2" style="text;html=1;align=center;verticalAlign=middle;resizable=0;points=[];autosize=1;strokeColor=none;fillColor=none;" vertex="1" parent="1">
          <mxGeometry x="340" y="396" width="40" height="30" as="geometry" />
        </mxCell>
        <mxCell id="4EGNlfxAOWbaa50m1SkZ-5" value="" style="ellipse;whiteSpace=wrap;html=1;aspect=fixed;fillColor=#e1d5e7;strokeColor=#9673a6;" vertex="1" parent="1">
          <mxGeometry x="275" y="355" width="10" height="10" as="geometry" />
        </mxCell>
        <mxCell id="4EGNlfxAOWbaa50m1SkZ-7" value="" style="ellipse;whiteSpace=wrap;html=1;aspect=fixed;fillColor=#d5e8d4;strokeColor=#82b366;" vertex="1" parent="1">
          <mxGeometry x="275" y="395" width="10" height="10" as="geometry" />
        </mxCell>
        <mxCell id="4EGNlfxAOWbaa50m1SkZ-8" value="" style="ellipse;whiteSpace=wrap;html=1;aspect=fixed;fillColor=#d5e8d4;strokeColor=#82b366;" vertex="1" parent="1">
          <mxGeometry x="315" y="355" width="10" height="10" as="geometry" />
        </mxCell>
        <mxCell id="4EGNlfxAOWbaa50m1SkZ-9" value="" style="ellipse;whiteSpace=wrap;html=1;aspect=fixed;fillColor=#e1d5e7;strokeColor=#9673a6;" vertex="1" parent="1">
          <mxGeometry x="315" y="396" width="10" height="10" as="geometry" />
        </mxCell>
        <mxCell id="4EGNlfxAOWbaa50m1SkZ-11" value="1" style="text;html=1;align=center;verticalAlign=middle;resizable=0;points=[];autosize=1;strokeColor=none;fillColor=none;" vertex="1" parent="1">
          <mxGeometry x="295" y="399" width="30" height="30" as="geometry" />
        </mxCell>
        <mxCell id="4EGNlfxAOWbaa50m1SkZ-12" value="(0,0)" style="text;html=1;align=center;verticalAlign=middle;resizable=0;points=[];autosize=1;strokeColor=none;fillColor=none;" vertex="1" parent="1">
          <mxGeometry x="240" y="396" width="50" height="30" as="geometry" />
        </mxCell>
        <mxCell id="4EGNlfxAOWbaa50m1SkZ-14" value="" style="endArrow=none;html=1;rounded=0;shadow=0;" edge="1" parent="1">
          <mxGeometry width="50" height="50" relative="1" as="geometry">
            <mxPoint x="345" y="434" as="sourcePoint" />
            <mxPoint x="251" y="338" as="targetPoint" />
          </mxGeometry>
        </mxCell>
        <mxCell id="4EGNlfxAOWbaa50m1SkZ-15" value="" style="endArrow=none;html=1;rounded=0;" edge="1" parent="1">
          <mxGeometry width="50" height="50" relative="1" as="geometry">
            <mxPoint x="354" y="428" as="sourcePoint" />
            <mxPoint x="260" y="332" as="targetPoint" />
          </mxGeometry>
        </mxCell>
      </root>
    </mxGraphModel>
  </diagram>
</mxfile>
